<svg width="1024" height="1024" viewBox="0 0 1024 1024" fill="none" xmlns="http://www.w3.org/2000/svg">
<rect width="1024" height="1024" fill="#F5F5F5"/>
<rect width="1024" height="1024" fill="#502379"/>
<path d="M840.646 574.228V480.454H910.087V417.649H840.646V333L765.121 344.969V575.255C765.121 592.477 766.701 608.198 769.94 622.379C773.14 636.559 778.788 648.647 786.925 658.601C795.023 668.555 805.846 676.336 819.355 681.906C832.864 687.475 849.928 690.28 870.547 690.28C886.782 690.28 900.449 688.937 911.588 686.211C922.727 683.525 932.879 680.286 942.003 676.573L931.338 617.797C924.228 620.522 916.407 622.616 907.757 624.117C899.145 625.618 890.771 626.408 882.674 626.408C865.768 626.408 854.55 621.668 848.98 612.227C843.411 602.787 840.646 590.107 840.646 574.228Z" fill="white"/>
<path d="M297.829 684.197C311.733 654.848 325.48 624.275 338.989 592.517C352.498 560.758 365.335 529.356 377.501 498.269C389.667 467.182 400.846 437.478 411.116 409.156C421.347 380.756 430.392 355.397 438.253 333H354.078C347.481 353.461 340.134 375.384 332.116 398.807C324.058 422.271 315.881 445.655 307.546 468.92C299.212 492.226 291.114 514.504 283.293 535.834C275.472 557.164 268.244 575.532 261.647 590.937C254.656 575.413 247.309 557.006 239.685 535.676C232.022 514.346 224.043 492.028 215.708 468.762C207.374 445.497 199.158 422.113 191.1 398.689C183.042 375.226 175.734 353.343 169.177 333H82C89.4655 355.278 98.3136 380.637 108.584 409.038C118.854 437.439 130.072 467.143 142.317 498.19C154.562 529.237 167.479 560.64 181.067 592.359C194.655 624.077 208.44 654.69 222.423 684.197H297.829Z" fill="white"/>
<path d="M740.192 333L664.668 344.969V684.197H740.192V333Z" fill="white"/>
<path d="M643.575 554.439C643.575 478.875 582.31 417.61 506.746 417.61C475.581 417.61 446.864 428.038 423.875 445.537C417.476 462.64 410.761 480.178 403.69 498.19C393.499 524.182 382.873 550.449 371.734 576.914C382.518 641.813 438.845 691.268 506.746 691.268C582.31 691.268 643.575 630.003 643.575 554.439ZM575.082 554.439C575.082 591.845 544.745 622.182 507.339 622.182C469.932 622.182 439.596 591.845 439.596 554.439C439.596 517.032 469.932 486.696 507.339 486.696C544.745 486.696 575.082 517.032 575.082 554.439Z" fill="white"/>
</svg>
